<?xml version="1.0" encoding="UTF-8" standalone="no"?>
<svg width="31px" height="31px" viewBox="0 0 31 31" version="1.1" xmlns="http://www.w3.org/2000/svg" xmlns:xlink="http://www.w3.org/1999/xlink">
    <!-- Generator: Sketch 47.1 (45422) - http://www.bohemiancoding.com/sketch -->
    <title>instagram16</title>
    <desc>Created with Sketch.</desc>
    <defs>
        <polygon id="path-1" points="0 31 31 31 31 0 0 0"></polygon>
    </defs>
    <g id="Style-Guide" stroke="none" stroke-width="1" fill="none" fill-rule="evenodd">
        <g id="Desktop-Style-Guide" transform="translate(-974.000000, -788.000000)">
            <g id="instagram16" transform="translate(974.000000, 788.000000)">
                <mask id="mask-2" fill="white">
                    <use xlink:href="#path-1"></use>
                </mask>
                <g id="Clip-2"></g>
                <path d="M27.896125,0 L3.103875,0 C1.3930625,0 0,1.3930625 0,3.103875 L0,27.896125 C0,29.6069375 1.3930625,31 3.103875,31 L27.896125,31 C29.6069375,31 31,29.6069375 31,27.896125 L31,3.103875 C31,1.3930625 29.6069375,0 27.896125,0 Z M15.5,9.3019375 C18.913875,9.3019375 21.6980625,12.086125 21.6980625,15.5 C21.6980625,18.913875 18.913875,21.6980625 15.5,21.6980625 C12.086125,21.6980625 9.3019375,18.913875 9.3019375,15.5 C9.3019375,12.086125 12.086125,9.3019375 15.5,9.3019375 Z M3.875,27.896125 C3.413875,27.896125 3.103875,27.586125 3.103875,27.125 L3.103875,13.9480625 L6.3569375,13.9480625 C6.1980625,14.4169375 6.1980625,15.038875 6.1980625,15.5 C6.1980625,20.6169375 10.3830625,24.8019375 15.5,24.8019375 C20.6169375,24.8019375 24.8019375,20.6169375 24.8019375,15.5 C24.8019375,15.038875 24.8019375,14.4169375 24.6430625,13.9480625 L27.896125,13.9480625 L27.896125,27.125 C27.896125,27.586125 27.586125,27.896125 27.125,27.896125 L3.875,27.896125 Z M27.896125,6.978875 C27.896125,7.44 27.586125,7.75 27.125,7.75 L24.021125,7.75 C23.56,7.75 23.25,7.44 23.25,6.978875 L23.25,3.875 C23.25,3.413875 23.56,3.103875 24.021125,3.103875 L27.125,3.103875 C27.586125,3.103875 27.896125,3.413875 27.896125,3.875 L27.896125,6.978875 Z" id="Fill-1" fill="#A7A6A6" mask="url(#mask-2)"></path>
            </g>
        </g>
    </g>
</svg>