<?xml version="1.0" encoding="UTF-8" standalone="no"?>
<svg width="37px" height="29px" viewBox="0 0 37 29" version="1.1" xmlns="http://www.w3.org/2000/svg" xmlns:xlink="http://www.w3.org/1999/xlink">
    <!-- Generator: Sketch 47.1 (45422) - http://www.bohemiancoding.com/sketch -->
    <title>bird1</title>
    <desc>Created with Sketch.</desc>
    <defs>
        <polygon id="path-1" points="18.5 0 0 0 0 29 37 29 37 0"></polygon>
    </defs>
    <g id="Style-Guide" stroke="none" stroke-width="1" fill="none" fill-rule="evenodd">
        <g id="Desktop-Style-Guide" transform="translate(-1047.000000, -791.000000)">
            <g id="bird1" transform="translate(1047.000000, 791.000000)">
                <mask id="mask-2" fill="white">
                    <use xlink:href="#path-1"></use>
                </mask>
                <g id="Clip-2"></g>
                <path d="M32.6556728,4.59828767 C34.3204416,3.60761986 35.4251493,2.25941781 35.9569504,0.553681507 C34.3409943,1.38792808 32.7353145,1.94905822 31.1296348,2.25941781 C29.6858075,0.767208904 27.8489099,0 25.6600472,0 C23.51229,0 21.7062214,0.727482877 20.2315651,2.1427226 C18.7569088,3.57037671 18.0144424,5.29597603 18.0144424,7.31455479 C18.0144424,7.93527397 18.0940842,8.4765411 18.2533676,8.94332192 C11.933412,8.73972603 6.70274962,6.19726027 2.57936398,1.31840753 C1.87543397,2.51267123 1.5363144,3.73424658 1.5363144,4.98561644 C1.5363144,7.57525685 2.65900569,9.62114726 4.90695737,11.1257705 C3.62241355,11.0190068 2.49972226,10.7086473 1.5363144,10.1946918 C1.5363144,12.0369863 2.08609915,13.5788527 3.22163588,14.9369863 C4.34432718,16.2752568 5.79072351,17.1293664 7.56596306,17.4968322 C6.92369115,17.6532534 6.24288293,17.7302226 5.54922927,17.7302226 C4.90695737,17.7302226 4.45479794,17.6805651 4.18504374,17.5638699 C4.65518678,19.0684932 5.54922927,20.2900685 6.84404944,21.2211473 C8.12859325,22.1621575 9.60324955,22.65625 11.2603111,22.695976 C8.52937092,24.771661 5.40022219,25.7995719 1.85745035,25.7995719 C0.983960561,25.7995719 0.372517706,25.7896404 0,25.7300514 C3.49139008,27.9125 7.36557423,29 11.6610887,29 C16.067074,29 19.9515345,27.9224315 23.3221775,25.7697774 C26.7056659,23.6369863 29.2028191,20.9877568 30.8084988,17.8742295 C32.4141786,14.7706336 33.218303,11.5428938 33.218303,8.16618151 L33.218303,7.23510274 C34.772601,6.10042808 36.0365921,4.82174658 37,3.41395548 C35.5947091,3.99743151 34.1508818,4.39469178 32.6556728,4.59828767 Z" id="Fill-1" fill="#A7A6A6" mask="url(#mask-2)"></path>
            </g>
        </g>
    </g>
</svg>